<?xml version="1.0" encoding="UTF-8"?>
<!DOCTYPE svg PUBLIC "-//W3C//DTD SVG 1.1//EN" "http://www.w3.org/Graphics/SVG/1.1/DTD/svg11.dtd">
<!-- Creator: CorelDRAW X7 -->
<svg xmlns="http://www.w3.org/2000/svg" xml:space="preserve" width="10.6201mm" height="10.6201mm" version="1.1" style="shape-rendering:geometricPrecision; text-rendering:geometricPrecision; image-rendering:optimizeQuality; fill-rule:evenodd; clip-rule:evenodd"
viewBox="0 0 257 257"
 xmlns:xlink="http://www.w3.org/1999/xlink">
 <defs>
  <style type="text/css">
   <![CDATA[
    .fil0 {fill:#5A3D7D}
   ]]>
  </style>
 </defs>
 <g id="Camada_x0020_1">
  <metadata id="CorelCorpID_0Corel-Layer"/>
  <path class="fil0" d="M48 0l11 0c-5,1 -9,3 -14,6 -9,5 -17,12 -24,22 -7,10 -12,21 -16,35 -3,9 -4,19 -5,29l0 -44c0,-27 21,-48 48,-48zm52 0l109 0c26,0 48,21 48,48l0 75c-3,-18 -8,-38 -20,-51 -12,-12 -29,-19 -49,-19 -21,0 -37,7 -50,20 -3,4 -7,9 -9,14 -3,-5 -6,-10 -9,-13 -11,-12 -26,-19 -44,-19l-12 18c2,0 4,0 6,0 15,0 26,5 33,14 8,9 12,23 12,40 0,17 -4,30 -12,39 -7,9 -18,14 -33,14 -13,0 -25,-5 -33,-14 -19,-22 -17,-79 -11,-102 3,-10 6,-19 11,-26 5,-7 11,-12 18,-16 7,-4 15,-6 23,-6 7,0 14,1 21,3l10 -16c-2,-1 -5,-2 -9,-3zm157 164l0 45c0,26 -22,48 -48,48l-161 0c-27,0 -48,-22 -48,-48l0 -86c2,20 7,42 20,56 12,13 29,19 49,19 21,0 37,-6 50,-20 3,-4 7,-8 9,-13 3,5 6,9 9,13 11,12 26,18 44,19l12 -19c-2,0 -4,0 -6,0 -15,0 -26,-4 -33,-14 -8,-9 -12,-22 -12,-39 0,-17 4,-30 12,-40 7,-9 18,-13 33,-13 13,0 25,4 33,14 19,21 17,78 11,102 -3,10 -6,18 -11,25 -5,7 -11,13 -18,16 -7,4 -15,6 -23,6 -7,0 -14,-1 -21,-3l-10 16c8,4 18,6 31,6 12,0 23,-3 33,-8 9,-5 17,-13 24,-22 7,-10 12,-22 16,-35 2,-8 4,-16 5,-25z"/>
 </g>
</svg>
