<?xml version="1.0" encoding="UTF-8"?>
<!DOCTYPE svg PUBLIC "-//W3C//DTD SVG 1.1//EN" "http://www.w3.org/Graphics/SVG/1.1/DTD/svg11.dtd">
<!-- Creator: CorelDRAW X7 -->
<svg xmlns="http://www.w3.org/2000/svg" xml:space="preserve" width="44.8516mm" height="8.1618mm" version="1.1" style="shape-rendering:geometricPrecision; text-rendering:geometricPrecision; image-rendering:optimizeQuality; fill-rule:evenodd; clip-rule:evenodd"
viewBox="0 0 3600 655"
 xmlns:xlink="http://www.w3.org/1999/xlink">
 <defs>
  <style type="text/css">
   <![CDATA[
    .fil0 {fill:white}
   ]]>
  </style>
 </defs>
 <g id="Camada_x0020_1">
  <metadata id="CorelCorpID_0Corel-Layer"/>
  <g id="_319103600">
   <path class="fil0" d="M172 511c-50,0 -90,-16 -120,-48 -41,-43 -52,-116 -52,-175 0,-42 5,-79 14,-113 9,-34 22,-63 39,-87 17,-23 37,-42 61,-55 24,-13 51,-20 80,-20 33,0 59,5 79,14l-27 40c-16,-5 -33,-7 -50,-7 -22,0 -41,4 -58,14 -17,9 -32,23 -44,40 -12,17 -21,38 -28,63 -15,59 -20,200 28,254 20,23 48,35 82,35 36,0 63,-12 82,-35 19,-23 28,-55 28,-97 0,-43 -9,-76 -28,-99 -19,-23 -46,-34 -82,-34 -5,0 -11,0 -16,0l30 -46c46,2 82,18 109,47 29,31 43,74 43,130 0,54 -16,97 -46,130 -31,33 -72,49 -124,49zm731 -11c-13,7 -30,10 -51,10 -59,0 -89,-33 -89,-99l0 -202 -59 0 0 -46 59 0 0 -83 54 -17 0 100 86 0 0 46 -86 0 0 192c0,23 4,40 12,49 8,10 20,15 38,15 14,0 26,-4 36,-12l0 47zm-234 3l-54 0 0 -53 -1 0c-23,41 -58,61 -105,61 -81,0 -122,-48 -122,-145l0 -203 54 0 0 195c0,72 28,108 83,108 26,0 48,-10 65,-30 17,-19 26,-45 26,-77l0 -196 54 0 0 340z"/>
   <path class="fil0" d="M1388 157c50,0 90,16 120,48 42,44 53,117 53,176 0,41 -5,79 -14,112 -9,34 -22,63 -39,87 -17,24 -38,43 -62,56 -24,13 -50,19 -80,19 -32,0 -58,-4 -78,-13l26 -41c17,5 34,8 51,8 21,0 40,-5 57,-14 17,-10 32,-23 44,-41 12,-17 22,-38 28,-63 16,-59 20,-199 -27,-253 -21,-23 -48,-35 -83,-35 -35,0 -62,11 -81,34 -19,23 -28,56 -28,98 0,42 9,75 28,98 19,23 46,35 81,35 6,0 11,0 17,-1l-30 46c-46,-1 -83,-17 -110,-46 -11,-13 -20,-28 -27,-44 -7,14 -16,27 -27,39 -31,33 -72,49 -124,49 -50,0 -90,-16 -120,-48 -30,-31 -45,-73 -45,-126 0,-57 16,-102 47,-134 31,-32 73,-48 126,-48 51,0 91,16 119,47 12,13 21,27 28,44 7,-15 16,-28 27,-40 30,-32 72,-49 123,-49zm-301 44c-35,0 -62,11 -83,35 -20,24 -30,57 -30,99 0,40 10,72 31,96 20,23 48,35 82,35 36,0 63,-12 82,-35 19,-23 28,-55 28,-97 0,-43 -9,-76 -28,-99 -19,-23 -46,-34 -82,-34z"/>
   <path class="fil0" d="M1630 77c-10,0 -18,-3 -25,-10 -7,-7 -10,-15 -10,-25 0,-11 3,-19 10,-26 7,-6 15,-10 25,-10 10,0 18,4 25,10 7,7 11,15 11,26 0,9 -4,18 -11,24 -7,7 -15,11 -25,11zm1801 434c-50,0 -90,-16 -120,-48 -30,-31 -45,-73 -45,-126 0,-57 16,-102 47,-134 31,-32 73,-48 126,-48 51,0 90,16 119,47 28,31 42,74 42,130 0,54 -15,97 -45,130 -31,33 -72,49 -124,49zm4 -310c-35,0 -62,11 -83,35 -20,24 -30,57 -30,99 0,40 10,72 31,96 20,23 48,35 82,35 35,0 62,-12 81,-35 19,-23 29,-55 29,-97 0,-43 -10,-76 -29,-99 -19,-23 -46,-34 -81,-34zm-211 302l-55 0 0 -194c0,-72 -26,-108 -79,-108 -27,0 -50,10 -67,30 -18,21 -27,47 -27,78l0 194 -55 0 0 -340 55 0 0 56 1 0c26,-43 63,-64 112,-64 37,0 65,12 85,36 20,24 30,59 30,104l0 208zm-376 -476l0 314 61 0 0 50 -61 0 0 112 -53 0 0 -112 -215 0 0 112 -54 0 0 -57 -1 0c-26,43 -65,65 -117,65 -43,0 -77,-15 -103,-46 -25,-30 -38,-71 -38,-124 0,-56 14,-101 43,-135 28,-34 66,-51 113,-51 46,0 80,18 102,55l1 0 0 -210 54 0 0 333c18,-20 36,-42 54,-64 21,-27 41,-54 61,-81 19,-28 37,-55 54,-82 16,-28 30,-54 41,-79l58 0zm-216 314l163 0 0 -233c-17,29 -33,55 -47,78 -15,23 -29,44 -43,62 -13,19 -26,35 -38,50 -12,15 -24,30 -35,43zm-106 8l0 -50c0,-27 -9,-51 -27,-70 -18,-19 -41,-28 -69,-28 -34,0 -60,12 -79,36 -19,25 -28,58 -28,101 0,40 9,71 27,93 18,23 43,32 74,35 46,4 102,-55 102,-117zm-258 -131c-9,-7 -23,-11 -41,-11 -23,0 -43,11 -58,33 -16,22 -24,52 -24,90l0 173 -54 0 0 -340 54 0 0 70 2 0c8,-24 19,-42 35,-56 16,-13 34,-20 54,-20 14,0 25,2 32,5l0 56zm-396 293c-50,0 -91,-16 -121,-48 -29,-31 -45,-73 -45,-126 0,-57 16,-102 47,-134 32,-32 74,-48 127,-48 50,0 90,16 118,47 29,31 43,74 43,130 0,54 -15,97 -46,130 -31,33 -72,49 -123,49zm4 -310c-35,0 -63,11 -83,35 -21,24 -31,57 -31,99 0,40 11,72 31,96 21,23 48,35 83,35 35,0 62,-12 81,-35 19,-23 28,-55 28,-97 0,-43 -9,-76 -28,-99 -19,-23 -46,-34 -81,-34zm-219 302l-55 0 0 -340 55 0 0 340z"/>
  </g>
 </g>
</svg>
